<svg width="15" height="15" viewBox="0 0 15 15" fill="none" xmlns="http://www.w3.org/2000/svg">
<path fill-rule="evenodd" clip-rule="evenodd" d="M12.0312 14.1525C12.617 14.7383 13.5668 14.7383 14.1525 14.1525C14.7383 13.5668 14.7383 12.617 14.1525 12.0312L9.55635 7.43503L14.1525 2.83883C14.7383 2.25305 14.7383 1.3033 14.1525 0.717514C13.5668 0.131727 12.617 0.131727 12.0312 0.717514L7.43503 5.31371L2.83883 0.717514C2.25305 0.131727 1.3033 0.131727 0.717514 0.717514C0.131728 1.3033 0.131727 2.25305 0.717514 2.83883L5.31371 7.43503L0.717514 12.0312C0.131728 12.617 0.131728 13.5668 0.717514 14.1525C1.3033 14.7383 2.25305 14.7383 2.83883 14.1525L7.43503 9.55635L12.0312 14.1525Z" fill="black"/>
</svg>
