<svg width="28" height="18" viewBox="0 0 28 18" fill="none" xmlns="http://www.w3.org/2000/svg">
<path d="M5 12H11" stroke="black" stroke-width="3" stroke-linecap="round"/>
<path d="M6.12498 0.990997C6.44121 0.430777 6.99568 0.100006 7.65001 0.100006C8.27571 0.100006 8.82475 0.428391 9.13411 0.922226C9.25068 1.05673 9.34505 1.21437 9.40956 1.39159L14.5399 15.487C14.8232 16.2654 14.4218 17.1262 13.6434 17.4095C12.8649 17.6929 12.0041 17.2915 11.7208 16.513L7.65761 5.3495L3.5944 16.513C3.31105 17.2915 2.4503 17.6929 1.67183 17.4095C0.893354 17.1262 0.491987 16.2654 0.775312 15.487L5.90562 1.39159C5.95942 1.24373 6.05972 1.10661 6.12498 0.990997Z" fill="black"/>
<path d="M27.7143 11C26.8979 14.4743 24.4245 17 21.5 17C17.9101 17 15 13.1944 15 8.5C15 3.80558 17.9101 0 21.5 0C24.4245 0 26.8979 2.52566 27.7143 6H25.0638C24.4018 4.21916 23.0544 3 21.5 3C19.2909 3 17.5 5.46243 17.5 8.5C17.5 11.5376 19.2909 14 21.5 14C23.0544 14 24.4018 12.7808 25.0638 11H27.7143Z" fill="black"/>
</svg>
